<svg width="16" height="13" viewBox="0 0 16 13" fill="none" xmlns="http://www.w3.org/2000/svg">
<path d="M1.5 5L1.10693 4.36126C0.821155 4.53712 0.686966 4.88139 0.77835 5.20426C0.869734 5.52712 1.16445 5.75 1.5 5.75V5ZM14.5 5V5.75C14.8355 5.75 15.1303 5.52712 15.2217 5.20426C15.313 4.88139 15.1788 4.53712 14.8931 4.36126L14.5 5ZM8 1L8.39307 0.361256C8.15202 0.212915 7.84798 0.212915 7.60693 0.361256L8 1ZM4.25 5C4.25 4.58579 3.91421 4.25 3.5 4.25C3.08579 4.25 2.75 4.58579 2.75 5H4.25ZM2.75 9.5C2.75 9.91421 3.08579 10.25 3.5 10.25C3.91421 10.25 4.25 9.91421 4.25 9.5H2.75ZM7.25 5C7.25 4.58579 6.91421 4.25 6.5 4.25C6.08579 4.25 5.75 4.58579 5.75 5H7.25ZM5.75 9.5C5.75 9.91421 6.08579 10.25 6.5 10.25C6.91421 10.25 7.25 9.91421 7.25 9.5H5.75ZM10.25 5C10.25 4.58579 9.91421 4.25 9.5 4.25C9.08579 4.25 8.75 4.58579 8.75 5H10.25ZM8.75 9.5C8.75 9.91421 9.08579 10.25 9.5 10.25C9.91421 10.25 10.25 9.91421 10.25 9.5H8.75ZM13.25 5C13.25 4.58579 12.9142 4.25 12.5 4.25C12.0858 4.25 11.75 4.58579 11.75 5H13.25ZM11.75 9.5C11.75 9.91421 12.0858 10.25 12.5 10.25C12.9142 10.25 13.25 9.91421 13.25 9.5H11.75ZM2 8.75C1.58579 8.75 1.25 9.08579 1.25 9.5C1.25 9.91421 1.58579 10.25 2 10.25V8.75ZM14 10.25C14.4142 10.25 14.75 9.91421 14.75 9.5C14.75 9.08579 14.4142 8.75 14 8.75V10.25ZM1 11.25C0.585786 11.25 0.25 11.5858 0.25 12C0.25 12.4142 0.585786 12.75 1 12.75V11.25ZM15 12.75C15.4142 12.75 15.75 12.4142 15.75 12C15.75 11.5858 15.4142 11.25 15 11.25V12.75ZM1.5 5.75H14.5V4.25H1.5V5.75ZM14.8931 4.36126L8.39307 0.361256L7.60693 1.63874L14.1069 5.63874L14.8931 4.36126ZM7.60693 0.361256L1.10693 4.36126L1.89307 5.63874L8.39307 1.63874L7.60693 0.361256ZM2.75 5V9.5H4.25V5H2.75ZM5.75 5V9.5H7.25V5H5.75ZM8.75 5V9.5H10.25V5H8.75ZM11.75 5V9.5H13.25V5H11.75ZM2 10.25H14V8.75H2V10.25ZM1 12.75H15V11.25H1V12.75Z" fill="#202020"/>
</svg>
