<svg width="14" height="13" viewBox="0 0 14 13" fill="none" xmlns="http://www.w3.org/2000/svg">
<path d="M4.90533 4.84467C4.61244 4.55178 4.13756 4.55178 3.84467 4.84467C3.55178 5.13756 3.55178 5.61244 3.84467 5.90533L4.90533 4.84467ZM7 8L6.46967 8.53033C6.76256 8.82322 7.23744 8.82322 7.53033 8.53033L7 8ZM10.1553 5.90533C10.4482 5.61244 10.4482 5.13756 10.1553 4.84467C9.86244 4.55178 9.38756 4.55178 9.09467 4.84467L10.1553 5.90533ZM7.75 1C7.75 0.585786 7.41421 0.25 7 0.25C6.58579 0.25 6.25 0.585786 6.25 1H7.75ZM13.25 8C13.25 7.58579 12.9142 7.25 12.5 7.25C12.0858 7.25 11.75 7.58579 11.75 8H13.25ZM2.25 8C2.25 7.58579 1.91421 7.25 1.5 7.25C1.08579 7.25 0.75 7.58579 0.75 8H2.25ZM3.84467 5.90533L6.46967 8.53033L7.53033 7.46967L4.90533 4.84467L3.84467 5.90533ZM7.53033 8.53033L10.1553 5.90533L9.09467 4.84467L6.46967 7.46967L7.53033 8.53033ZM6.25 1V8H7.75V1H6.25ZM11.75 8V11.5H13.25V8H11.75ZM11.75 11.5C11.75 11.4337 11.7763 11.3701 11.8232 11.3232L12.8839 12.3839C13.1183 12.1495 13.25 11.8315 13.25 11.5H11.75ZM11.8232 11.3232C11.8701 11.2763 11.9337 11.25 12 11.25V12.75C12.3315 12.75 12.6495 12.6183 12.8839 12.3839L11.8232 11.3232ZM12 11.25H2V12.75H12V11.25ZM2 11.25C2.0663 11.25 2.12989 11.2763 2.17678 11.3232L1.11612 12.3839C1.35054 12.6183 1.66848 12.75 2 12.75V11.25ZM2.17678 11.3232C2.22366 11.3701 2.25 11.4337 2.25 11.5H0.75C0.75 11.8315 0.881696 12.1495 1.11612 12.3839L2.17678 11.3232ZM2.25 11.5V8H0.75V11.5H2.25Z" fill="#202020"/>
</svg>
