<svg width="12" height="13" viewBox="0 0 12 13" fill="none" xmlns="http://www.w3.org/2000/svg">
<path d="M9.53033 6.96967C9.23744 6.67678 8.76256 6.67678 8.46967 6.96967C8.17678 7.26256 8.17678 7.73744 8.46967 8.03033L9.53033 6.96967ZM11 9.5L11.5303 10.0303C11.8232 9.73744 11.8232 9.26256 11.5303 8.96967L11 9.5ZM8.46967 10.9697C8.17678 11.2626 8.17678 11.7374 8.46967 12.0303C8.76256 12.3232 9.23744 12.3232 9.53033 12.0303L8.46967 10.9697ZM1 8.75C0.585786 8.75 0.25 9.08579 0.25 9.5C0.25 9.91421 0.585786 10.25 1 10.25V8.75ZM2.46967 6.03033C2.76256 6.32322 3.23744 6.32322 3.53033 6.03033C3.82322 5.73744 3.82322 5.26256 3.53033 4.96967L2.46967 6.03033ZM1 3.5L0.46967 2.96967C0.176777 3.26256 0.176777 3.73744 0.46967 4.03033L1 3.5ZM3.53033 2.03033C3.82322 1.73744 3.82322 1.26256 3.53033 0.96967C3.23744 0.676777 2.76256 0.676777 2.46967 0.96967L3.53033 2.03033ZM11 4.25C11.4142 4.25 11.75 3.91421 11.75 3.5C11.75 3.08579 11.4142 2.75 11 2.75V4.25ZM8.46967 8.03033L10.4697 10.0303L11.5303 8.96967L9.53033 6.96967L8.46967 8.03033ZM10.4697 8.96967L8.46967 10.9697L9.53033 12.0303L11.5303 10.0303L10.4697 8.96967ZM1 10.25H11V8.75H1V10.25ZM3.53033 4.96967L1.53033 2.96967L0.46967 4.03033L2.46967 6.03033L3.53033 4.96967ZM1.53033 4.03033L3.53033 2.03033L2.46967 0.96967L0.46967 2.96967L1.53033 4.03033ZM11 2.75H1V4.25H11V2.75Z" fill="#202020"/>
</svg>
