<svg width="14" height="13" viewBox="0 0 14 13" fill="none" xmlns="http://www.w3.org/2000/svg">
<path d="M3.84467 3.09467C3.55178 3.38756 3.55178 3.86244 3.84467 4.15533C4.13756 4.44822 4.61244 4.44822 4.90533 4.15533L3.84467 3.09467ZM7 1L7.53033 0.46967C7.23744 0.176777 6.76256 0.176777 6.46967 0.46967L7 1ZM9.09467 4.15533C9.38756 4.44822 9.86244 4.44822 10.1553 4.15533C10.4482 3.86244 10.4482 3.38756 10.1553 3.09467L9.09467 4.15533ZM6.25 8C6.25 8.41421 6.58579 8.75 7 8.75C7.41421 8.75 7.75 8.41421 7.75 8H6.25ZM13.25 8C13.25 7.58579 12.9142 7.25 12.5 7.25C12.0858 7.25 11.75 7.58579 11.75 8H13.25ZM2.25 8C2.25 7.58579 1.91421 7.25 1.5 7.25C1.08579 7.25 0.75 7.58579 0.75 8H2.25ZM4.90533 4.15533L7.53033 1.53033L6.46967 0.46967L3.84467 3.09467L4.90533 4.15533ZM6.46967 1.53033L9.09467 4.15533L10.1553 3.09467L7.53033 0.46967L6.46967 1.53033ZM7.75 8V1H6.25V8H7.75ZM11.75 8V11.5H13.25V8H11.75ZM11.75 11.5C11.75 11.4337 11.7763 11.3701 11.8232 11.3232L12.8839 12.3839C13.1183 12.1495 13.25 11.8315 13.25 11.5H11.75ZM11.8232 11.3232C11.8701 11.2763 11.9337 11.25 12 11.25V12.75C12.3315 12.75 12.6495 12.6183 12.8839 12.3839L11.8232 11.3232ZM12 11.25H2V12.75H12V11.25ZM2 11.25C2.0663 11.25 2.12989 11.2763 2.17678 11.3232L1.11612 12.3839C1.35054 12.6183 1.66848 12.75 2 12.75V11.25ZM2.17678 11.3232C2.22366 11.3701 2.25 11.4337 2.25 11.5H0.75C0.75 11.8315 0.881696 12.1495 1.11612 12.3839L2.17678 11.3232ZM2.25 11.5V8H0.75V11.5H2.25Z" fill="#202020"/>
</svg>
