<svg width="62" height="70" viewBox="0 0 62 70" fill="none" xmlns="http://www.w3.org/2000/svg">
<rect x="1.75879" y="1.89978" width="59" height="66.9999" fill="#7FB2AC" stroke="#29454D" stroke-width="2"/>
<path d="M8.23486 20.1538C8.23486 17.9447 10.0257 16.1538 12.2349 16.1538H33.7794C35.9886 16.1538 37.7794 17.9447 37.7794 20.1538V68.8997H8.23486V20.1538Z" fill="white" stroke="#29454D" stroke-width="2"/>
<path d="M19.8926 33.1459H18.3401L21.8285 23.4188H23.5183L27.0067 33.1459H25.4542L22.7136 25.1857H22.6379L19.8926 33.1459ZM20.1529 29.3368H25.1891V30.5716H20.1529V29.3368Z" fill="#19888C"/>
<path d="M11.958 42.9285C11.958 42.3763 12.4057 41.9285 12.958 41.9285H14.4436H15.9293C16.4816 41.9285 16.9293 42.3763 16.9293 42.9285V51.254C16.9293 51.8063 16.4816 52.254 15.9293 52.254H14.4436H12.958C12.4057 52.254 11.958 51.8063 11.958 51.254V42.9285Z" fill="#7FB2AC"/>
<path d="M14.4436 39.2509V41.9285M14.4436 41.9285H12.958C12.4057 41.9285 11.958 42.3763 11.958 42.9285V51.254C11.958 51.8063 12.4057 52.254 12.958 52.254H14.4436M14.4436 41.9285H15.9293C16.4816 41.9285 16.9293 42.3763 16.9293 42.9285V51.254C16.9293 51.8063 16.4816 52.254 15.9293 52.254H14.4436M14.4436 52.254V55.2662" stroke="#29454D" stroke-width="2" stroke-linecap="round"/>
<rect x="42.1274" y="33.162" width="13.0167" height="16.1085" rx="3" fill="#19888C" stroke="#29454D" stroke-width="2"/>
<path d="M46.6999 39.6609C46.6999 40.2632 46.2134 40.7514 45.6132 40.7514C45.013 40.7514 44.5264 40.2632 44.5264 39.6609C44.5264 39.0587 45.013 38.5704 45.6132 38.5704C46.2134 38.5704 46.6999 39.0587 46.6999 39.6609Z" fill="#29454D"/>
<path d="M46.6334 42.9143C46.6334 43.5166 46.1468 44.0048 45.5466 44.0048C44.9464 44.0048 44.4599 43.5166 44.4599 42.9143C44.4599 42.3121 44.9464 41.8238 45.5466 41.8238C46.1468 41.8238 46.6334 42.3121 46.6334 42.9143Z" fill="#29454D"/>
<path d="M46.6332 46.168C46.6332 46.7703 46.1467 47.2585 45.5465 47.2585C44.9463 47.2585 44.4597 46.7703 44.4597 46.168C44.4597 45.5658 44.9463 45.0776 45.5465 45.0776C46.1467 45.0776 46.6332 45.5658 46.6332 46.168Z" fill="#29454D"/>
<path d="M49.789 39.6609C49.789 40.2632 49.3025 40.7514 48.7023 40.7514C48.1021 40.7514 47.6155 40.2632 47.6155 39.6609C47.6155 39.0587 48.1021 38.5704 48.7023 38.5704C49.3025 38.5704 49.789 39.0587 49.789 39.6609Z" fill="#29454D"/>
<path d="M49.7225 42.9143C49.7225 43.5166 49.2359 44.0048 48.6358 44.0048C48.0356 44.0048 47.549 43.5166 47.549 42.9143C47.549 42.3121 48.0356 41.8238 48.6358 41.8238C49.2359 41.8238 49.7225 42.3121 49.7225 42.9143Z" fill="#29454D"/>
<path d="M49.7223 46.168C49.7223 46.7703 49.2358 47.2585 48.6356 47.2585C48.0354 47.2585 47.5488 46.7703 47.5488 46.168C47.5488 45.5658 48.0354 45.0776 48.6356 45.0776C49.2358 45.0776 49.7223 45.5658 49.7223 46.168Z" fill="#29454D"/>
<path d="M52.8783 39.6609C52.8783 40.2632 52.3918 40.7514 51.7916 40.7514C51.1914 40.7514 50.7048 40.2632 50.7048 39.6609C50.7048 39.0587 51.1914 38.5704 51.7916 38.5704C52.3918 38.5704 52.8783 39.0587 52.8783 39.6609Z" fill="#29454D"/>
<path d="M52.8119 42.9143C52.8119 43.5166 52.3254 44.0048 51.7252 44.0048C51.125 44.0048 50.6385 43.5166 50.6385 42.9143C50.6385 42.3121 51.125 41.8238 51.7252 41.8238C52.3254 41.8238 52.8119 42.3121 52.8119 42.9143Z" fill="#29454D"/>
<path d="M52.8118 46.168C52.8118 46.7703 52.3252 47.2585 51.725 47.2585C51.1248 47.2585 50.6383 46.7703 50.6383 46.168C50.6383 45.5658 51.1248 45.0776 51.725 45.0776C52.3252 45.0776 52.8118 45.5658 52.8118 46.168Z" fill="#29454D"/>
<path d="M45.7627 36.3831C45.7627 35.84 46.2015 35.3997 46.7427 35.3997H50.9145C51.4558 35.3997 51.8946 35.84 51.8946 36.3831C51.8946 36.9263 51.4558 37.3666 50.9145 37.3666H46.7427C46.2015 37.3666 45.7627 36.9263 45.7627 36.3831Z" fill="#29454D"/>
<path d="M53.2382 24.2724C53.2382 26.7913 51.2041 28.8274 48.7022 28.8274C46.2003 28.8274 44.1663 26.7913 44.1663 24.2724C44.1663 21.7535 46.2003 19.7174 48.7022 19.7174C51.2041 19.7174 53.2382 21.7535 53.2382 24.2724Z" fill="white" stroke="#29454D" stroke-width="2"/>
</svg>
